<?xml version="1.0" encoding="UTF-8"?>
<!DOCTYPE svg PUBLIC "-//W3C//DTD SVG 1.1//EN" "http://www.w3.org/Graphics/SVG/1.1/DTD/svg11.dtd">
<!-- Creator: CorelDRAW X8 -->
<svg xmlns="http://www.w3.org/2000/svg" xml:space="preserve" width="160.181mm" height="52.01mm" version="1.1" style="shape-rendering:geometricPrecision; text-rendering:geometricPrecision; image-rendering:optimizeQuality; fill-rule:evenodd; clip-rule:evenodd"
viewBox="0 0 16021 5202"
 xmlns:xlink="http://www.w3.org/1999/xlink">
 <defs>
  <style type="text/css">
   <![CDATA[
    .fil4 {fill:#FDC809}
    .fil1 {fill:#DF8818}
    .fil3 {fill:#C53623}
    .fil6 {fill:#A22621}
    .fil7 {fill:#15B4DC}
    .fil8 {fill:#08853F}
    .fil5 {fill:#0E67AC}
    .fil2 {fill:#0A5995}
    .fil0 {fill:#FEFEFE;fill-rule:nonzero}
   ]]>
  </style>
    <clipPath id="id0">
     <path d="M13389 1151l1554 5 0 921 -1544 0 -10 -926z"/>
    </clipPath>
    <mask id="id1">
  <linearGradient id="id2" gradientUnits="userSpaceOnUse" x1="13619.1" y1="1553.43" x2="13900.7" y2="169.882">
   <stop offset="0" style="stop-opacity:1; stop-color:white"/>
   <stop offset="1" style="stop-opacity:0; stop-color:white"/>
  </linearGradient>
     <rect style="fill:url(#id2)" x="13322" y="-9" width="1068" height="1068"/>
    </mask>
    <clipPath id="id3">
     <path d="M13390 3468l1137 -50 -7 499 -1130 489 0 -938z"/>
    </clipPath>
    <clipPath id="id4">
     <path d="M13680 2479l2112 -182 229 62 -5 65 -1159 395 -1177 -340z"/>
    </clipPath>
 </defs>
 <g id="Layer_x0020_1">
  <metadata id="CorelCorpID_0Corel-Layer"/>
  <path class="fil0" d="M590 1535l-590 0 0 2489 615 0c391,0 594,-206 594,-590l0 -203c0,-263 -82,-452 -292,-533 175,-82 253,-246 253,-502l0 -89c0,-384 -174,-572 -580,-572zm-25 1369c178,0 253,71 253,302l0 217c0,185 -71,245 -203,245l-224 0 0 -764 174 0zm15 -1014c138,0 199,79 199,256l0 139c0,199 -89,263 -235,263l-153 0 0 -658 189 0zm846 -355l0 1895c0,398 199,626 583,626 384,0 583,-228 583,-626l0 -1895 -369 0 0 1920c0,178 -79,242 -203,242 -125,0 -203,-64 -203,-242l0 -1920 -391 0zm2649 2489c-39,-92 -42,-181 -42,-302l0 -384c0,-260 -64,-448 -260,-530 174,-82 256,-249 256,-505l0 -196c0,-384 -174,-572 -580,-572l-590 0 0 2489 391 0 0 -1013 135 0c178,0 256,85 256,316l0 391c0,203 15,242 36,306l398 0zm-636 -2134c138,0 199,79 199,256l0 246c0,199 -89,263 -235,263l-153 0 0 -765 189 0zm1209 217c0,-178 78,-245 203,-245 124,0 202,67 202,245l0 1344c0,178 -78,246 -202,246 -125,0 -203,-68 -203,-246l0 -1344zm-391 1320c0,398 209,625 594,625 384,0 593,-227 593,-625l0 -1295c0,-398 -209,-626 -593,-626 -385,0 -594,228 -594,626l0 1295zm2382 -1537l644 0 0 -355 -1035 0 0 2489 391 0 0 -1028 505 0 0 -355 -505 0 0 -751zm1192 217c0,-178 78,-245 202,-245 125,0 203,67 203,245l0 1344c0,178 -78,246 -203,246 -124,0 -202,-68 -202,-246l0 -1344zm-392 1320c0,398 210,625 594,625 384,0 594,-227 594,-625l0 -1295c0,-398 -210,-626 -594,-626 -384,0 -594,228 -594,626l0 1295zm2657 597c-39,-92 -43,-181 -43,-302l0 -384c0,-260 -64,-448 -260,-530 175,-82 257,-249 257,-505l0 -196c0,-384 -175,-572 -580,-572l-590 0 0 2489 391 0 0 -1013 135 0c178,0 256,85 256,316l0 391c0,203 14,242 35,306l399 0zm-637 -2134c139,0 199,79 199,256l0 246c0,199 -89,263 -234,263l-153 0 0 -765 188 0zm1615 1206l0 355c0,178 -79,242 -203,242 -124,0 -203,-64 -203,-242l0 -1344c0,-178 79,-245 203,-245 124,0 203,67 203,245l0 267 370 0 0 -242c0,-398 -200,-626 -584,-626 -384,0 -583,228 -583,626l0 1295c0,398 199,625 583,625 384,0 584,-227 584,-625l0 -331 -370 0zm999 -1206l676 0 0 -355 -1067 0 0 2489 1067 0 0 -356 -676 0 0 -729 537 0 0 -355 -537 0 0 -694z"/>
  <path class="fil0" d="M4792 4438c-94,0 -166,34 -217,101 -45,60 -67,135 -67,227 0,92 22,168 67,227 51,67 123,101 217,101 93,0 165,-34 216,-101 45,-59 68,-135 68,-227 0,-92 -23,-167 -68,-227 -51,-67 -123,-101 -216,-101zm0 47c77,0 135,29 176,85 36,50 55,115 55,196 0,81 -19,146 -55,197 -41,56 -99,84 -176,84 -78,0 -137,-28 -177,-84 -36,-50 -53,-116 -53,-197 0,-81 17,-147 53,-196 40,-56 99,-85 177,-85zm450 154l0 426c0,9 3,16 8,21 5,5 12,7 19,7 7,0 13,-2 18,-7 6,-5 9,-12 9,-21l0 -331c10,-22 25,-40 44,-52 21,-14 46,-21 74,-21 14,0 21,-9 20,-27 0,-17 -7,-26 -19,-26 -27,0 -52,7 -73,21 -17,10 -32,25 -46,45l0 -35c0,-8 -3,-14 -9,-19 -5,-3 -11,-5 -18,-5 -7,0 -14,2 -19,6 -5,5 -8,11 -8,18zm657 2l0 45c-18,-26 -39,-46 -62,-59 -25,-12 -53,-19 -86,-19 -64,0 -115,25 -152,74 -32,45 -48,99 -48,162 0,66 16,120 48,163 37,48 87,72 152,72 35,0 66,-8 94,-23 24,-14 42,-30 54,-50l0 50c0,27 -12,49 -36,67 -26,21 -63,31 -112,31 -38,0 -69,-6 -92,-18 -22,-11 -38,-27 -48,-48 -4,-6 -9,-10 -16,-12 -7,-1 -13,0 -19,4 -7,3 -11,8 -13,14 -3,7 -2,14 3,22 15,28 39,50 70,64 31,14 69,21 114,21 65,0 116,-15 153,-46 33,-27 50,-60 50,-99l0 -415c0,-8 -3,-14 -9,-19 -5,-4 -11,-6 -19,-6 -7,0 -13,2 -19,6 -5,5 -7,11 -7,19zm-148 14c47,0 85,20 112,60 24,35 36,78 36,128 0,54 -12,97 -36,131 -27,38 -64,57 -112,57 -49,0 -86,-19 -112,-57 -23,-34 -35,-77 -35,-131 0,-50 12,-93 35,-128 27,-40 64,-60 112,-60zm681 314c-13,24 -32,42 -57,55 -27,15 -61,22 -100,22 -34,0 -60,-7 -76,-22 -16,-14 -24,-35 -24,-62 0,-29 9,-51 26,-66 17,-16 47,-27 90,-32 42,-6 75,-12 100,-20 20,-6 33,-13 41,-19l0 144zm-116 -361c-48,0 -86,11 -115,32 -30,22 -48,55 -55,99 -1,8 0,15 6,20 4,5 10,8 17,9 7,0 13,-1 19,-5 6,-4 10,-10 11,-17 3,-29 13,-50 30,-65 19,-17 48,-26 86,-26 40,0 70,8 89,23 19,14 28,35 28,62 0,25 -8,41 -25,50 -18,10 -57,19 -117,28 -69,8 -116,27 -143,57 -17,20 -26,49 -26,87 0,41 13,73 39,96 26,24 64,36 115,36 38,0 71,-7 101,-20 21,-10 41,-23 58,-39 0,17 5,30 15,37 12,8 35,12 67,12 8,0 14,-2 19,-7 4,-5 6,-10 6,-17 -1,-6 -3,-12 -7,-17 -4,-4 -10,-7 -17,-7 -10,0 -18,-3 -24,-8 -5,-5 -7,-13 -7,-22l0 -270c0,-45 -17,-78 -50,-100 -29,-18 -69,-28 -120,-28zm360 35l0 423c0,9 2,16 7,21 6,5 12,8 19,8 7,-1 13,-3 18,-8 6,-6 9,-13 9,-22l0 -303c20,-37 43,-63 70,-81 25,-17 54,-26 86,-26 29,0 53,9 70,28 16,16 24,36 24,60l0 323c0,8 3,15 8,21 5,5 11,7 19,7 7,0 13,-2 18,-7 5,-6 8,-13 8,-21l0 -323c0,-37 -12,-68 -37,-93 -27,-28 -64,-42 -110,-42 -35,0 -67,8 -93,23 -26,15 -47,37 -63,64l0 -52c0,-9 -3,-16 -9,-21 -5,-4 -11,-7 -18,-7 -7,0 -13,3 -19,7 -5,5 -7,12 -7,21zm556 -11l0 434c0,8 2,15 7,21 6,5 12,7 19,7 8,0 14,-3 19,-8 6,-5 9,-12 9,-20l0 -434c0,-8 -3,-14 -9,-19 -5,-3 -11,-5 -19,-5 -7,0 -13,2 -19,6 -5,4 -7,10 -7,18zm26 -194c-14,0 -24,5 -32,14 -7,9 -10,19 -10,32 0,12 3,22 10,30 8,9 18,13 32,13 13,0 24,-4 31,-13 8,-9 12,-19 12,-30 0,-13 -4,-23 -12,-32 -7,-9 -18,-14 -31,-14zm203 232l249 0 -269 341c-14,14 -17,29 -11,44 7,16 22,24 44,24l295 0c8,0 14,-3 19,-8 4,-4 7,-10 7,-16 0,-7 -3,-12 -7,-17 -5,-5 -11,-7 -19,-7l-274 0 276 -347c13,-14 16,-28 9,-41 -6,-13 -22,-20 -45,-20l-275 0c-14,0 -22,8 -22,23 0,16 8,24 23,24zm794 280c-13,29 -29,51 -46,66 -23,20 -51,30 -85,30 -43,0 -78,-20 -103,-59 -23,-33 -35,-73 -37,-121l334 0 0 -14c0,-67 -16,-123 -49,-169 -36,-50 -85,-75 -145,-75 -61,0 -109,25 -145,75 -32,46 -48,103 -48,169 0,66 16,121 48,167 36,50 84,75 145,75 43,0 80,-11 112,-33 31,-21 55,-52 71,-92 4,-8 4,-16 0,-24 -3,-6 -7,-10 -14,-12 -7,-3 -15,-4 -21,-1 -8,3 -13,9 -17,18zm-270 -132c4,-42 16,-77 37,-107 26,-37 59,-56 102,-56 42,0 76,19 102,57 21,30 33,65 37,106l-278 0zm884 -350c0,-9 -3,-16 -8,-21 -5,-5 -11,-7 -18,-7 -8,0 -14,2 -19,6 -5,5 -8,12 -8,20l0 222c-17,-27 -38,-47 -63,-59 -23,-13 -51,-19 -84,-19 -65,0 -115,25 -151,75 -33,44 -49,100 -49,168 0,67 16,122 49,167 36,50 86,76 151,76 34,0 65,-8 93,-24 24,-13 42,-30 54,-50l0 37c0,8 3,14 8,19 5,5 11,7 18,8 7,0 13,-2 18,-6 6,-5 9,-12 9,-21l0 -591zm-199 189c47,0 84,20 111,61 23,35 35,80 35,135 0,54 -12,99 -35,134 -27,41 -64,61 -111,61 -48,0 -86,-20 -112,-61 -23,-35 -35,-80 -35,-134 0,-55 12,-100 35,-135 26,-41 64,-61 112,-61zm881 -219c-67,0 -119,14 -157,41 -38,28 -56,67 -56,116 0,51 18,91 55,119 31,24 82,44 151,60 73,16 121,37 146,60 20,20 30,51 30,93 0,38 -19,69 -58,91 -32,19 -69,28 -110,28 -54,0 -95,-11 -123,-32 -31,-24 -48,-61 -52,-112 -1,-10 -5,-17 -10,-22 -6,-5 -12,-7 -19,-6 -7,1 -13,3 -17,8 -6,5 -8,13 -7,22 5,66 29,114 69,145 38,30 91,45 161,45 62,0 113,-15 154,-45 44,-32 66,-75 66,-128 0,-54 -16,-96 -48,-126 -34,-31 -91,-54 -172,-71 -62,-12 -104,-29 -128,-49 -23,-19 -34,-46 -34,-82 0,-35 14,-62 43,-80 27,-18 65,-27 112,-27 44,0 79,9 103,28 24,18 40,48 47,88 1,9 5,16 11,20 6,5 13,7 21,6 8,-1 14,-4 18,-11 5,-6 6,-15 5,-26 -7,-42 -24,-76 -50,-101 -35,-34 -85,-52 -151,-52zm413 66l0 119 -46 0c-13,0 -19,8 -19,23 0,16 6,24 19,24l46 0 0 341c0,22 7,41 21,56 14,18 35,27 61,27l40 0c8,0 14,-3 19,-8 5,-4 7,-10 7,-16 0,-7 -2,-13 -7,-17 -5,-5 -11,-7 -19,-7l-31 0c-12,0 -22,-4 -28,-13 -6,-7 -9,-15 -9,-25l0 -338 70 0c14,0 22,-8 22,-24 0,-15 -8,-23 -22,-23l-70 0 0 -119c0,-8 -3,-15 -8,-20 -6,-3 -12,-5 -19,-5 -8,0 -14,2 -19,5 -5,5 -8,12 -8,20zm581 465c-13,24 -32,42 -57,55 -28,15 -61,22 -100,22 -35,0 -60,-7 -77,-22 -15,-14 -23,-35 -23,-62 0,-29 8,-51 25,-66 18,-16 48,-27 90,-32 43,-6 76,-12 100,-20 20,-6 34,-13 42,-19l0 144zm-117 -361c-47,0 -86,11 -115,32 -29,22 -47,55 -54,99 -2,8 0,15 5,20 5,5 10,8 17,9 8,0 14,-1 19,-5 6,-4 10,-10 11,-17 3,-29 13,-50 30,-65 19,-17 48,-26 87,-26 39,0 69,8 89,23 18,14 28,35 28,62 0,25 -9,41 -26,50 -17,10 -56,19 -117,28 -69,8 -116,27 -142,57 -18,20 -26,49 -26,87 0,41 12,73 38,96 26,24 65,36 116,36 37,0 71,-7 100,-20 22,-10 41,-23 58,-39 0,17 5,30 15,37 13,8 35,12 68,12 8,0 14,-2 18,-7 4,-5 6,-10 6,-17 0,-6 -3,-12 -7,-17 -4,-4 -10,-7 -17,-7 -10,0 -18,-3 -23,-8 -5,-5 -8,-13 -8,-22l0 -270c0,-45 -16,-78 -49,-100 -29,-18 -69,-28 -121,-28zm360 -142l0 591c0,9 3,16 9,21 4,4 10,6 18,6 7,0 13,-3 18,-7 5,-5 8,-12 8,-20l0 -36c12,20 30,37 55,50 28,15 60,23 96,23 63,0 112,-25 149,-75 32,-45 48,-101 48,-167 0,-68 -16,-124 -48,-169 -37,-50 -86,-75 -149,-75 -34,0 -64,7 -89,19 -24,13 -45,32 -62,59l0 -221c0,-9 -3,-16 -8,-21 -5,-4 -11,-6 -18,-6 -8,0 -14,3 -19,7 -5,5 -8,12 -8,21zm204 189c46,0 82,21 108,61 24,36 35,81 35,135 0,54 -11,99 -35,135 -26,40 -62,60 -108,60 -50,0 -88,-20 -115,-60 -24,-36 -36,-80 -36,-135 0,-55 12,-100 36,-135 27,-40 65,-61 115,-61zm374 -23l0 434c0,8 3,15 8,21 5,5 12,7 19,7 7,0 14,-3 19,-8 6,-5 8,-12 8,-20l0 -434c0,-8 -2,-14 -8,-19 -5,-3 -12,-5 -19,-5 -7,0 -14,2 -19,6 -5,4 -8,10 -8,18zm27 -194c-14,0 -25,5 -32,14 -7,9 -10,19 -10,32 0,12 3,22 10,30 7,9 18,13 32,13 13,0 23,-4 31,-13 8,-9 11,-19 11,-30 0,-13 -3,-23 -11,-32 -8,-9 -18,-14 -31,-14zm217 25l0 604c0,8 2,15 7,20 5,5 12,7 19,7 7,0 13,-2 18,-7 6,-4 9,-11 9,-19l0 -604c0,-9 -3,-15 -9,-20 -5,-4 -11,-6 -18,-6 -7,0 -14,2 -19,6 -5,5 -7,11 -7,19zm252 169l0 434c0,8 2,15 7,21 6,5 12,7 19,7 8,0 14,-3 19,-8 6,-5 9,-12 9,-20l0 -434c0,-8 -3,-14 -9,-19 -5,-3 -11,-5 -19,-5 -7,0 -13,2 -19,6 -5,4 -7,10 -7,18zm26 -194c-14,0 -24,5 -32,14 -7,9 -10,19 -10,32 0,12 3,22 10,30 8,9 18,13 32,13 13,0 23,-4 31,-13 8,-9 12,-19 12,-30 0,-13 -4,-23 -12,-32 -8,-9 -18,-14 -31,-14zm239 66l0 119 -45 0c-13,0 -20,8 -20,23 0,16 7,24 20,24l45 0 0 341c0,22 7,41 21,56 15,18 35,27 61,27l40 0c8,0 15,-3 20,-8 4,-4 7,-10 7,-16 0,-7 -3,-13 -7,-17 -5,-5 -12,-7 -20,-7l-30 0c-13,0 -22,-4 -29,-13 -6,-7 -9,-15 -9,-25l0 -338 70 0c15,0 22,-8 22,-24 0,-15 -7,-23 -22,-23l-70 0 0 -119c0,-8 -2,-15 -8,-20 -5,-3 -12,-5 -19,-5 -7,0 -14,2 -19,5 -5,5 -8,12 -8,20zm240 140l159 402 -30 63c-8,17 -15,29 -21,35 -7,7 -17,11 -30,11l-38 0c-9,0 -15,2 -20,7 -4,4 -6,10 -6,16 0,6 2,12 6,16 5,5 11,8 20,8l38 0c24,0 44,-7 61,-21 19,-14 34,-36 47,-65l193 -478c3,-7 2,-13 -2,-19 -4,-5 -10,-8 -17,-10 -8,-1 -14,-1 -21,1 -8,2 -13,7 -15,15l-136 352 -138 -355c-3,-7 -8,-12 -14,-14 -7,-1 -14,0 -21,3 -7,3 -12,7 -15,13 -4,6 -4,13 0,20z"/>
  <g id="_1980424290736">
   <polygon class="fil1" points="16020,2360 15192,1874 13413,2290 13432,2371 14293,2899 "/>
   <path class="fil2" d="M13965 1002c276,0 501,-224 501,-501 0,-277 -225,-501 -501,-501 -277,0 -501,224 -501,501 0,277 224,501 501,501z"/>
   <polygon class="fil2" points="13869,3522 13390,5040 14196,4787 14513,4401 14527,3382 "/>
   <path class="fil3" d="M13390 1592l2630 -768c0,233 0,467 0,700 1,103 -41,175 -146,200l-2481 560 -3 -692z"/>
   <g style="clip-path:url(#id0)">
    <image x="13369" y="1156" width="1574" height="921" xlink:href="15084-Backup_of_BURO FORCE final logo-83b1fbf8-b8a8-4e86-92d9-5ff5419cb648_Images\15084-Backup_of_BURO FORCE final logo-83b1fbf8-b8a8-4e86-92d9-5ff5419cb648_ImgID1.png"/>
   </g>
   <path class="fil4" d="M13390 1592l2630 769 -35 764 -2433 -680c-115,-31 -165,-110 -162,-197l0 -656z"/>
   <polygon class="fil5" points="13390,3356 14212,3343 14196,4787 13390,5040 "/>
   <polygon class="fil6" points="13390,1592 15220,845 16020,824 "/>
   <path class="fil5" d="M13856 1049c290,0 524,-234 524,-524 0,-289 -234,-524 -524,-524 -289,0 -524,235 -524,524 0,290 235,524 524,524z"/>
   <path class="fil7" style="mask:url(#id1)" d="M13856 1c290,0 524,235 524,524 0,290 -234,524 -524,524 -289,0 -524,-234 -524,-524 0,-289 235,-524 524,-524z"/>
   <g style="clip-path:url(#id3)">
    <image x="13390" y="3418" width="1137" height="988" xlink:href="15084-Backup_of_BURO FORCE final logo-83b1fbf8-b8a8-4e86-92d9-5ff5419cb648_Images\15084-Backup_of_BURO FORCE final logo-83b1fbf8-b8a8-4e86-92d9-5ff5419cb648_ImgID2.png"/>
   </g>
   <g style="clip-path:url(#id4)">
    <image x="13680" y="2297" width="2341" height="522" xlink:href="15084-Backup_of_BURO FORCE final logo-83b1fbf8-b8a8-4e86-92d9-5ff5419cb648_Images\15084-Backup_of_BURO FORCE final logo-83b1fbf8-b8a8-4e86-92d9-5ff5419cb648_ImgID3.png"/>
   </g>
   <path class="fil8" d="M13541 3133l2479 -772c0,199 0,398 0,598 -6,155 26,239 -198,322l-2432 757c0,-234 0,-469 0,-703 1,-104 50,-165 151,-202z"/>
  </g>
 </g>
</svg>
