<?xml version="1.0" encoding="UTF-8"?>
<!DOCTYPE svg PUBLIC "-//W3C//DTD SVG 1.1//EN" "http://www.w3.org/Graphics/SVG/1.1/DTD/svg11.dtd">
<svg xmlns="http://www.w3.org/2000/svg" version="1.1" width="811px" height="811px" style="shape-rendering:geometricPrecision; text-rendering:geometricPrecision; image-rendering:optimizeQuality; fill-rule:evenodd; clip-rule:evenodd" xmlns:xlink="http://www.w3.org/1999/xlink">
<g><path style="opacity:0.973" fill="#506690" d="M 287.5,24.5 C 365.834,24.3333 444.167,24.5 522.5,25C 541.987,32.8248 553.82,46.9914 558,67.5C 558.82,86.5436 558.654,105.544 557.5,124.5C 619.164,125.333 680.831,125.833 742.5,126C 759.269,133.256 764.602,145.756 758.5,163.5C 754.837,169.997 749.504,174.497 742.5,177C 723.17,177.5 703.836,177.667 684.5,177.5C 684.667,355.167 684.5,532.834 684,710.5C 675.76,748.741 652.926,773.574 615.5,785C 475.167,785.667 334.833,785.667 194.5,785C 157.5,773.668 134.667,749.168 126,711.5C 125.5,533.5 125.333,355.5 125.5,177.5C 106.164,177.667 86.8305,177.5 67.5,177C 50.6685,169.818 45.3352,157.318 51.5,139.5C 55.1794,132.983 60.5127,128.483 67.5,126C 129.169,125.833 190.836,125.333 252.5,124.5C 251.346,105.544 251.18,86.5436 252,67.5C 255.988,47.5292 267.488,33.8625 286.5,26.5C 287.298,26.0431 287.631,25.3764 287.5,24.5 Z M 304.5,76.5 C 371.5,76.5 438.5,76.5 505.5,76.5C 505.5,92.8333 505.5,109.167 505.5,125.5C 438.5,125.5 371.5,125.5 304.5,125.5C 304.5,109.167 304.5,92.8333 304.5,76.5 Z M 177.5,177.5 C 329.167,177.5 480.833,177.5 632.5,177.5C 632.667,350.5 632.5,523.5 632,696.5C 629.608,716.818 618.442,728.985 598.5,733C 469.5,733.667 340.5,733.667 211.5,733C 191.558,728.985 180.392,716.818 178,696.5C 177.5,523.5 177.333,350.5 177.5,177.5 Z"/></g>
<g><path style="opacity:0.949" fill="#506690" d="M 312.5,277.5 C 329.054,274.942 340.554,281.275 347,296.5C 347.667,402.5 347.667,508.5 347,614.5C 341.178,629.328 330.345,635.828 314.5,634C 305.46,630.958 298.96,625.124 295,616.5C 294.333,509.5 294.333,402.5 295,295.5C 298.353,286.982 304.186,280.982 312.5,277.5 Z"/></g>
<g><path style="opacity:0.949" fill="#506690" d="M 481.5,277.5 C 497.35,275.006 508.517,281.006 515,295.5C 515.667,402.5 515.667,509.5 515,616.5C 505.31,634.269 491.476,638.603 473.5,629.5C 468.524,625.553 465.024,620.553 463,614.5C 462.333,508.5 462.333,402.5 463,296.5C 466.51,287.4 472.676,281.067 481.5,277.5 Z"/></g>
</svg>
